<svg aria-hidden="true" style="position: absolute; width: 0; height: 0; overflow: hidden;" version="1.1" xmlns="http://www.w3.org/2000/svg" xmlns:xlink="http://www.w3.org/1999/xlink">
<defs>
<symbol id="icon-chevron-left" viewBox="0 0 20 20">
<title>chevron-left</title>
<path d="M12.452 4.516c0.446 0.436 0.481 1.043 0 1.576l-3.747 3.908 3.747 3.908c0.481 0.533 0.446 1.141 0 1.574-0.445 0.436-1.197 0.408-1.615 0-0.418-0.406-4.502-4.695-4.502-4.695-0.223-0.217-0.335-0.502-0.335-0.787s0.112-0.57 0.335-0.789c0 0 4.084-4.287 4.502-4.695s1.17-0.436 1.615 0z"></path>
</symbol>
<symbol id="icon-chevron-right" viewBox="0 0 20 20">
<title>chevron-right</title>
<path d="M9.163 4.516c0.418 0.408 4.502 4.695 4.502 4.695 0.223 0.219 0.335 0.504 0.335 0.789s-0.112 0.57-0.335 0.787c0 0-4.084 4.289-4.502 4.695-0.418 0.408-1.17 0.436-1.615 0-0.446-0.434-0.481-1.041 0-1.574l3.747-3.908-3.747-3.908c-0.481-0.533-0.446-1.141 0-1.576s1.197-0.409 1.615 0z"></path>
</symbol>
<symbol id="icon-chevron-with-circle-left" viewBox="0 0 20 20">
<title>chevron-with-circle-left</title>
<path d="M11.302 6.776c-0.196-0.197-0.515-0.197-0.71 0l-2.807 2.865c-0.196 0.199-0.196 0.52 0 0.717l2.807 2.864c0.195 0.199 0.514 0.198 0.71 0 0.196-0.197 0.196-0.518 0-0.717l-2.302-2.505 2.302-2.506c0.196-0.198 0.196-0.518 0-0.718zM10 0.4c-5.302 0-9.6 4.298-9.6 9.6 0 5.303 4.298 9.6 9.6 9.6s9.6-4.297 9.6-9.6c0-5.302-4.298-9.6-9.6-9.6zM10 18.354c-4.615 0-8.354-3.74-8.354-8.354s3.739-8.354 8.354-8.354c4.613 0 8.354 3.74 8.354 8.354s-3.741 8.354-8.354 8.354z"></path>
</symbol>
<symbol id="icon-chevron-with-circle-right" viewBox="0 0 20 20">
<title>chevron-with-circle-right</title>
<path d="M11 10l-2.302-2.506c-0.196-0.198-0.196-0.519 0-0.718 0.196-0.197 0.515-0.197 0.71 0l2.807 2.864c0.196 0.199 0.196 0.52 0 0.717l-2.807 2.864c-0.195 0.199-0.514 0.198-0.71 0-0.196-0.197-0.196-0.518 0-0.717l2.302-2.504zM10 0.4c5.302 0 9.6 4.298 9.6 9.6 0 5.303-4.298 9.6-9.6 9.6s-9.6-4.297-9.6-9.6c0-5.302 4.298-9.6 9.6-9.6zM10 18.354c4.613 0 8.354-3.74 8.354-8.354s-3.741-8.354-8.354-8.354c-4.615 0-8.354 3.74-8.354 8.354s3.739 8.354 8.354 8.354z"></path>
</symbol>
<symbol id="icon-aircraft-landing" viewBox="0 0 20 20">
<title>aircraft-landing</title>
<path d="M18.752 16.038c-0.097 0.266-0.822 1.002-6.029-0.878l-5.105-1.843c-1.777-0.641-4.278-1.649-5.258-2.217-0.686-0.397-0.836-1.282-0.836-1.282s-0.163-2.956-0.263-3.684c-0.1-0.728 0.095-0.853 0.796-0.492 0.436 0.225 1.865 2.562 2.464 3.567 1.512 0.381 2.862 0.761 3.493 0.949-0.257-1.717-0.74-4.928-0.913-5.933-0.166-0.963 0.55-0.535 0.55-0.535 0.331 0.19 0.983 0.661 1.206 1.002 1.522 2.326 3.672 6.6 3.836 6.928 0.896 0.28 2.277 0.733 3.102 1.030 2.156 0.779 3.087 3.034 2.957 3.388z"></path>
</symbol>
<symbol id="icon-back-in-time" viewBox="0 0 20 20">
<title>back-in-time</title>
<path d="M11 1.799c-4.445 0-8.061 3.562-8.169 7.996v0.205h-2.372l3.594 3.894 3.494-3.894h-2.672v-0.205c0.107-3.303 2.808-5.945 6.125-5.945 3.386 0 6.131 2.754 6.131 6.15s-2.745 6.15-6.131 6.15c-1.357 0-2.611-0.445-3.627-1.193l-1.406 1.504c1.388 1.088 3.135 1.738 5.033 1.738 4.515 0 8.174-3.67 8.174-8.199s-3.659-8.201-8.174-8.201zM10 5v5c0 0.13 0.027 0.26 0.077 0.382s0.124 0.233 0.216 0.325l3.2 3.2c0.283-0.183 0.55-0.389 0.787-0.628l-2.28-2.279v-6h-2z"></path>
</symbol>
<symbol id="icon-circle-with-plus" viewBox="0 0 20 20">
<title>circle-with-plus</title>
<path d="M10 1.6c-4.639 0-8.4 3.761-8.4 8.4s3.761 8.4 8.4 8.4 8.4-3.761 8.4-8.4c0-4.639-3.761-8.4-8.4-8.4zM15 11h-4v4h-2v-4h-4v-2h4v-4h2v4h4v2z"></path>
</symbol>
<symbol id="icon-clipboard" viewBox="0 0 20 20">
<title>clipboard</title>
<path d="M15.6 2l-1.2 3h-8.8l-1.2-3c-0.771 0-1.4 0.629-1.4 1.4v15.2c0 0.77 0.629 1.4 1.399 1.4h11.2c0.77 0 1.4-0.631 1.4-1.4v-15.2c0.001-0.771-0.63-1.4-1.399-1.4zM13.6 4l0.9-2h-2.181l-0.719-2h-3.2l-0.72 2h-2.18l0.899 2h7.201z"></path>
</symbol>
<symbol id="icon-cross" viewBox="0 0 20 20">
<title>cross</title>
<path d="M14.348 14.849c-0.469 0.469-1.229 0.469-1.697 0l-2.651-3.030-2.651 3.029c-0.469 0.469-1.229 0.469-1.697 0-0.469-0.469-0.469-1.229 0-1.697l2.758-3.15-2.759-3.152c-0.469-0.469-0.469-1.228 0-1.697s1.228-0.469 1.697 0l2.652 3.031 2.651-3.031c0.469-0.469 1.228-0.469 1.697 0s0.469 1.229 0 1.697l-2.758 3.152 2.758 3.15c0.469 0.469 0.469 1.229 0 1.698z"></path>
</symbol>
<symbol id="icon-globe" viewBox="0 0 20 20">
<title>globe</title>
<path d="M10 0.4c-5.295 0-9.601 4.307-9.601 9.6s4.306 9.6 9.601 9.6c5.293 0 9.6-4.307 9.6-9.6s-4.307-9.6-9.6-9.6zM18.188 10c0 1.873-0.636 3.6-1.696 4.98-0.3-0.234-0.619-0.867-0.319-1.523 0.303-0.66 0.382-2.188 0.312-2.783-0.066-0.594-0.375-2.025-1.214-2.039-0.838-0.012-1.413-0.289-1.911-1.283-1.033-2.068 1.939-2.465 0.906-3.609-0.289-0.322-1.783 1.322-2.002-0.869-0.014-0.157 0.135-0.392 0.336-0.636 3.244 1.090 5.588 4.157 5.588 7.762zM8.875 1.893c-0.196 0.382-0.713 0.537-1.027 0.824-0.684 0.619-0.978 0.533-1.346 1.127-0.371 0.594-1.567 1.449-1.567 1.879s0.604 0.936 0.906 0.838c0.302-0.1 1.099-0.094 1.567 0.070 0.469 0.166 3.914 0.332 2.816 3.244-0.348 0.926-1.873 0.77-2.279 2.303-0.061 0.225-0.272 1.186-0.285 1.5-0.025 0.486 0.344 2.318-0.125 2.318-0.471 0-1.738-1.639-1.738-1.936s-0.328-1.338-0.328-2.23c0-0.891-1.518-0.877-1.518-2.062 0-1.068 0.823-1.6 0.638-2.113-0.181-0.51-1.627-0.527-2.23-0.59 1.053-2.731 3.53-4.758 6.516-5.172zM7.424 17.77c0.492-0.26 0.542-0.596 0.988-0.613 0.51-0.023 0.925-0.199 1.5-0.326 0.51-0.111 1.423-0.629 2.226-0.695 0.678-0.055 2.015 0.035 2.375 0.689-1.295 0.861-2.848 1.363-4.514 1.363-0.899 0-1.765-0.149-2.575-0.418z"></path>
</symbol>
<symbol id="icon-mail" viewBox="0 0 20 20">
<title>mail</title>
<path d="M1.574 5.286c0.488 0.262 7.248 3.894 7.5 4.029s0.578 0.199 0.906 0.199c0.328 0 0.654-0.064 0.906-0.199s7.012-3.767 7.5-4.029c0.489-0.263 0.951-1.286 0.054-1.286h-16.919c-0.897 0-0.435 1.023 0.053 1.286zM18.613 7.489c-0.555 0.289-7.387 3.849-7.727 4.027s-0.578 0.199-0.906 0.199-0.566-0.021-0.906-0.199-7.133-3.739-7.688-4.028c-0.39-0.204-0.386 0.035-0.386 0.219s0 7.293 0 7.293c0 0.42 0.566 1 1 1h16c0.434 0 1-0.58 1-1 0 0 0-7.108 0-7.292s0.004-0.423-0.387-0.219z"></path>
</symbol>
<symbol id="icon-star" viewBox="0 0 20 20">
<title>star</title>
<path d="M10 1.3l2.388 6.722h6.412l-5.232 3.948 1.871 6.928-5.439-4.154-5.438 4.154 1.87-6.928-5.233-3.948h6.412l2.389-6.722z"></path>
</symbol>
<symbol id="icon-behance" viewBox="0 0 20 20">
<title>behance</title>
<path d="M8.072 9.301c0 0 1.892-0.147 1.892-2.459 0-2.315-1.548-3.441-3.51-3.441h-6.454v12.926h6.454c0 0 3.941 0.129 3.941-3.816-0.001-0.001 0.171-3.21-2.323-3.21zM2.844 5.697h3.61c0 0 0.878 0 0.878 1.344 0 1.346-0.516 1.541-1.102 1.541h-3.386v-2.885zM6.271 14.029h-3.427v-3.455h3.61c0 0 1.308-0.018 1.308 1.775 0 1.512-0.977 1.669-1.491 1.68zM15.649 6.688c-4.771 0-4.767 4.967-4.767 4.967s-0.326 4.941 4.767 4.941c0 0 4.243 0.254 4.243-3.437h-2.182c0 0 0.072 1.391-1.988 1.391 0 0-2.184 0.152-2.184-2.25h6.423c0.001-0.001 0.709-5.612-4.312-5.612zM17.59 10.574h-4.074c0 0 0.266-1.992 2.182-1.992s1.892 1.992 1.892 1.992zM18.097 4.16h-5.117v1.594h5.117v-1.594z"></path>
</symbol>
<symbol id="icon-dribbble" viewBox="0 0 20 20">
<title>dribbble</title>
<path d="M9.565 7.421c-1.358-2.414-2.811-4.383-2.917-4.528-2.191 1.036-3.826 3.055-4.337 5.487 0.206 0.004 3.482 0.043 7.254-0.959zM10.543 10.061c0.102-0.033 0.206-0.064 0.309-0.094-0.197-0.447-0.412-0.895-0.637-1.336-4.046 1.212-7.928 1.124-8.065 1.12-0.003 0.084-0.007 0.166-0.007 0.25 0 2.019 0.763 3.861 2.016 5.252l-0.005-0.006c0 0 2.15-3.814 6.389-5.186zM5.171 16.194v-0.004c-0.058-0.045-0.12-0.086-0.178-0.135 0.106 0.085 0.178 0.139 0.178 0.139zM8.118 2.372c-0.007 0.002-0.015 0.004-0.015 0.004 0.006-0.002 0.014-0.002 0.014-0.002l0.001-0.002zM15.189 4.104c-1.384-1.218-3.199-1.961-5.189-1.961-0.639 0-1.258 0.078-1.852 0.221 0.12 0.16 1.595 2.119 2.938 4.584 2.962-1.109 4.081-2.812 4.103-2.844zM10 19.2c-5.080 0-9.199-4.119-9.199-9.199-0.001-5.082 4.118-9.201 9.199-9.201s9.2 4.119 9.2 9.201c0 5.080-4.118 9.199-9.2 9.199zM11.336 11.286c-4.611 1.607-6.134 4.838-6.165 4.904 1.334 1.041 3.006 1.666 4.828 1.666 1.088 0 2.125-0.221 3.067-0.621-0.116-0.689-0.573-3.096-1.679-5.967-0.016 0.006-0.033 0.012-0.051 0.018zM11.69 8.12c0.184 0.373 0.358 0.754 0.523 1.139 0.059 0.135 0.114 0.272 0.17 0.406 2.713-0.342 5.385 0.238 5.473 0.256-0.019-1.863-0.686-3.572-1.787-4.912-0.018 0.023-1.279 1.843-4.379 3.111zM12.861 10.905c1.031 2.836 1.449 5.142 1.529 5.611 1.764-1.191 3.018-3.080 3.367-5.27-0.156-0.050-2.356-0.747-4.896-0.341z"></path>
</symbol>
<symbol id="icon-linkedin" viewBox="0 0 20 20">
<title>linkedin</title>
<path d="M5 3c0 1.062-0.71 1.976-2.001 1.976-1.215 0-1.999-0.862-1.999-1.924 0-1.090 0.76-2.052 2-2.052s1.976 0.91 2 2zM1 19v-13h4v13h-4z"></path>
<path d="M7 10.444c0-1.545-0.051-2.836-0.102-3.951h3.594l0.178 1.723h0.076c0.506-0.811 1.746-2 3.822-2 2.532 0 4.432 1.695 4.432 5.342v7.442h-4v-6.861c0-1.594-0.607-2.81-2-2.81-1.062 0-1.594 0.86-1.873 1.569-0.102 0.254-0.127 0.608-0.127 0.963v7.139h-4v-8.556z"></path>
</symbol>
<symbol id="icon-twitter" viewBox="0 0 20 20">
<title>twitter</title>
<path d="M17.316 6.246c0.008 0.162 0.011 0.326 0.011 0.488 0 4.99-3.797 10.742-10.74 10.742-2.133 0-4.116-0.625-5.787-1.697 0.296 0.035 0.596 0.053 0.9 0.053 1.77 0 3.397-0.604 4.688-1.615-1.651-0.031-3.046-1.121-3.526-2.621 0.23 0.043 0.467 0.066 0.71 0.066 0.345 0 0.679-0.045 0.995-0.131-1.727-0.348-3.028-1.873-3.028-3.703 0-0.016 0-0.031 0-0.047 0.509 0.283 1.092 0.453 1.71 0.473-1.013-0.678-1.68-1.832-1.68-3.143 0-0.691 0.186-1.34 0.512-1.898 1.861 2.285 4.644 3.787 7.781 3.945-0.064-0.277-0.097-0.564-0.097-0.861 0-2.084 1.689-3.773 3.774-3.773 1.086 0 2.067 0.457 2.756 1.191 0.859-0.17 1.667-0.484 2.397-0.916-0.282 0.881-0.881 1.621-1.66 2.088 0.764-0.092 1.49-0.293 2.168-0.594-0.506 0.758-1.146 1.422-1.884 1.953z"></path>
</symbol>
<symbol id="icon-cancel-circle" viewBox="0 0 32 32">
<title>cancel-circle</title>
<path d="M16 0c-8.837 0-16 7.163-16 16s7.163 16 16 16 16-7.163 16-16-7.163-16-16-16zM16 29c-7.18 0-13-5.82-13-13s5.82-13 13-13 13 5.82 13 13-5.82 13-13 13z"></path>
<path d="M21 8l-5 5-5-5-3 3 5 5-5 5 3 3 5-5 5 5 3-3-5-5 5-5z"></path>
</symbol>
<symbol id="icon-circle-right" viewBox="0 0 32 32">
<title>circle-right</title>
<path d="M16 0c-8.837 0-16 7.163-16 16s7.163 16 16 16 16-7.163 16-16-7.163-16-16-16zM16 29c-7.18 0-13-5.82-13-13s5.82-13 13-13 13 5.82 13 13-5.82 13-13 13z"></path>
<path d="M11.086 22.086l2.829 2.829 8.914-8.914-8.914-8.914-2.828 2.828 6.086 6.086z"></path>
</symbol>
<symbol id="icon-circle-left" viewBox="0 0 32 32">
<title>circle-left</title>
<path d="M16 32c8.837 0 16-7.163 16-16s-7.163-16-16-16-16 7.163-16 16 7.163 16 16 16zM16 3c7.18 0 13 5.82 13 13s-5.82 13-13 13-13-5.82-13-13 5.82-13 13-13z"></path>
<path d="M20.914 9.914l-2.829-2.829-8.914 8.914 8.914 8.914 2.828-2.828-6.086-6.086z"></path>
</symbol>
<symbol id="icon-facebook" viewBox="0 0 32 32">
<title>facebook</title>
<path d="M19 6h5v-6h-5c-3.86 0-7 3.14-7 7v3h-4v6h4v16h6v-16h5l1-6h-6v-3c0-0.542 0.458-1 1-1z"></path>
</symbol>
</defs>
</svg>
